<svg version="1" xmlns="http://www.w3.org/2000/svg" width="744" height="744" viewBox="0 0 558.000000 558.000000"><path d="M169.2 81.9l-12.4.6-2.9 3.3c-4.6 5.2-4.1 9.2 4.7 35.1 22.1 65.4 44.2 113.5 83.3 181.4l9.1 15.8.2 75.9c.3 74.2.3 75.8 2.3 78 3.8 4.3 7.3 5 25.5 5s21.7-.7 25.5-5c2-2.2 2-3.8 2.3-78l.2-75.9 9.1-15.8c39.1-67.9 61.2-116 83.3-181.4 8.8-25.8 9.3-29.9 4.7-35.1l-2.9-3.2-18.8-.9c-10.4-.5-20.8-.6-23.2-.2-6.6 1-8.5 3.7-12.1 17.3-7.4 27.3-23.4 71.8-38.3 106.7-9.5 22.3-28.7 62.5-29.8 62.5-1.1 0-20.4-40.3-29.8-62.5-15.2-35.7-29.5-75.2-37.3-103.3-2.2-7.9-4.6-15.4-5.5-16.7-2.9-4.5-7.7-4.9-37.2-3.6z"/></svg>